<svg xmlns="http://www.w3.org/2000/svg" width="1280" height="640" viewBox="0 0 1280 640" role="img" aria-labelledby="title desc">
<title id="title">Prompt Optimizer</title><desc id="desc">Better instructions for every AI coding agent. Your prompt flows through Prompt Optimizer into a clear execution contract for your existing agent. Local-first, selective and scope-aware.</desc>
<defs><linearGradient id="bg" x2="1" y2="1"><stop stop-color="#0a1020"/><stop offset="1" stop-color="#102d32"/></linearGradient><radialGradient id="glow"><stop stop-color="#4cdac0" stop-opacity=".12"/><stop offset="1" stop-color="#4cdac0" stop-opacity="0"/></radialGradient></defs>
<rect width="1280" height="640" fill="url(#bg)"/><ellipse cx="960" cy="200" rx="430" ry="360" fill="url(#glow)"/>
<g font-family="Inter, Arial, sans-serif">
<rect x="48" y="42" width="286" height="32" rx="16" fill="#142b32" stroke="#2e585a"/>
<text x="66" y="63" font-size="13" fill="#93e8d5" font-weight="600" >MCP SERVER  +  AGENT SKILL</text>
<text x="48" y="158" font-size="62" fill="#eef5fa" font-weight="700" >Prompt Optimizer</text>
<text x="50" y="211" font-size="25" fill="#d0dde7" font-weight="500" >Better instructions for every AI coding agent.</text>
<text x="50" y="265" font-size="20" fill="#a6bbc9" font-weight="400" >Turn rough requests into focused instructions.</text>
<text x="50" y="296" font-size="20" fill="#a6bbc9" font-weight="400" >Your agent keeps the tools. You keep the intent.</text>
<rect x="48" y="334" width="716" height="123" rx="16" fill="#09131f" stroke="#304858"/>
<text x="70" y="364" font-size="12" fill="#8da9ba" font-weight="600" >TRY IT  /  NODE.JS 22+</text>
<text x="70" y="402" font-size="18" fill="#e5eff6" font-weight="400" font-family="Roboto Mono, monospace">$ npx -y prompt-optimizer-mcp-engine@0.1.1 --version</text>
<text x="70" y="434" font-size="18" fill="#93e8d5" font-weight="400" font-family="Roboto Mono, monospace">0.1.1</text>
<rect x="48" y="480" width="136" height="34" rx="17" fill="#132c34" stroke="#2c4c56"/>
<text x="66" y="503" font-size="15" fill="#bce5dd" font-weight="500" >Local-first</text>
<rect x="196" y="480" width="136" height="34" rx="17" fill="#132c34" stroke="#2c4c56"/>
<text x="214" y="503" font-size="15" fill="#bce5dd" font-weight="500" >Selective</text>
<rect x="344" y="480" width="168" height="34" rx="17" fill="#132c34" stroke="#2c4c56"/>
<text x="362" y="503" font-size="15" fill="#bce5dd" font-weight="500" >Scope-aware</text>
<rect x="824" y="56" width="408" height="88" rx="16" fill="#10202d" stroke="#31505b"/>
<text x="846" y="84" font-size="12" fill="#7bddc7" font-weight="600" >01</text>
<text x="882" y="87" font-size="21" fill="#eef5fa" font-weight="600" >Your Prompt</text>
<text x="846" y="119" font-size="16" fill="#a9becb" font-weight="400" >Rough request. Real intent.</text>
<path d="M1028 150v18m-5-5 5 5 5-5" stroke="#6d9c9e" fill="none" stroke-width="2"/>
<rect x="824" y="175" width="408" height="88" rx="16" fill="#123039" stroke="#63cbb6"/>
<text x="846" y="203" font-size="12" fill="#7bddc7" font-weight="600" >02</text>
<text x="882" y="206" font-size="21" fill="#eef5fa" font-weight="600" >Prompt Optimizer</text>
<text x="846" y="238" font-size="16" fill="#a9becb" font-weight="400" >Select only useful improvements.</text>
<path d="M1028 269v18m-5-5 5 5 5-5" stroke="#6d9c9e" fill="none" stroke-width="2"/>
<rect x="824" y="294" width="408" height="88" rx="16" fill="#10202d" stroke="#31505b"/>
<text x="846" y="322" font-size="12" fill="#7bddc7" font-weight="600" >03</text>
<text x="882" y="325" font-size="21" fill="#eef5fa" font-weight="600" >Clear Execution Contract</text>
<text x="846" y="357" font-size="16" fill="#a9becb" font-weight="400" >Keep the task focused.</text>
<path d="M1028 388v18m-5-5 5 5 5-5" stroke="#6d9c9e" fill="none" stroke-width="2"/>
<rect x="824" y="413" width="408" height="88" rx="16" fill="#10202d" stroke="#31505b"/>
<text x="846" y="441" font-size="12" fill="#7bddc7" font-weight="600" >04</text>
<text x="882" y="444" font-size="21" fill="#eef5fa" font-weight="600" >AI Agent</text>
<text x="846" y="476" font-size="16" fill="#a9becb" font-weight="400" >Execute. Verify. Deliver.</text>
<path d="M48 542H1232" stroke="#294551"/>
<rect x="48" y="563" width="147" height="39" rx="9" fill="#0e202d" stroke="#294451"/>
<text x="121.5" y="588" font-size="15" fill="#bbcfda" font-weight="500" text-anchor="middle">Codex</text>
<rect x="207" y="563" width="171" height="39" rx="9" fill="#0e202d" stroke="#294451"/>
<text x="292.5" y="588" font-size="15" fill="#bbcfda" font-weight="500" text-anchor="middle">Claude Code</text>
<rect x="390" y="563" width="218" height="39" rx="9" fill="#0e202d" stroke="#294451"/>
<text x="499.0" y="588" font-size="15" fill="#bbcfda" font-weight="500" text-anchor="middle">Google Antigravity</text>
<rect x="620" y="563" width="147" height="39" rx="9" fill="#0e202d" stroke="#294451"/>
<text x="693.5" y="588" font-size="15" fill="#bbcfda" font-weight="500" text-anchor="middle">Cursor</text>
<rect x="779" y="563" width="170" height="39" rx="9" fill="#0e202d" stroke="#294451"/>
<text x="864.0" y="588" font-size="15" fill="#bbcfda" font-weight="500" text-anchor="middle">OpenCode</text>
<rect x="961" y="563" width="271" height="39" rx="9" fill="#0e202d" stroke="#294451"/>
<text x="1096.5" y="588" font-size="15" fill="#bbcfda" font-weight="500" text-anchor="middle">Generic MCP Hosts</text>
</g></svg>
